<?xml version="1.0" standalone="no"?>
<!DOCTYPE svg PUBLIC "-//W3C//DTD SVG 20010904//EN"
 "http://www.w3.org/TR/2001/REC-SVG-20010904/DTD/svg10.dtd">
<svg version="1.0" xmlns="http://www.w3.org/2000/svg"
 width="200.000000pt" height="200.000000pt" viewBox="0 0 200.000000 200.000000"
 preserveAspectRatio="xMidYMid meet">
<metadata>
Created by potrace 1.11, written by Peter Selinger 2001-2013
</metadata>
<g transform="translate(0.000000,200.000000) scale(0.100000,-0.100000)"
fill="#000000" stroke="none">
<path d="M215 1886 c-121 -54 -131 -229 -17 -294 42 -23 110 -29 142 -12 19
10 31 6 686 -278 197 -84 206 -87 232 -64 23 20 162 334 162 366 0 32 -11 43
-62 66 -83 36 -93 28 -163 -140 -15 -36 -30 -69 -34 -73 -7 -7 -84 23 -224 87
-32 14 -60 26 -62 26 -3 0 -47 18 -97 41 -123 54 -138 61 -239 104 -77 32 -88
41 -104 75 -41 91 -137 133 -220 96z m116 -79 c63 -48 39 -150 -38 -161 -33
-5 -73 16 -89 46 -30 58 11 128 75 128 20 0 43 -6 52 -13z"/>
<path d="M1667 1876 c-46 -17 -61 -29 -86 -70 -26 -42 -31 -95 -15 -142 13
-38 12 -41 -83 -264 -225 -531 -263 -622 -263 -635 0 -29 42 -55 190 -117 85
-36 165 -69 177 -72 34 -11 58 8 82 63 33 77 24 89 -109 146 -84 37 -110 52
-107 64 2 9 71 172 152 362 142 334 148 346 181 358 42 15 80 61 94 111 23 85
-21 165 -107 196 -47 16 -59 16 -106 0z m114 -95 c54 -55 25 -135 -53 -148
-33 -5 -41 -2 -68 27 -34 36 -39 73 -14 108 34 49 93 54 135 13z"/>
<path d="M772 1848 c-5 -7 -21 -40 -35 -73 -22 -51 -24 -62 -12 -74 19 -20
397 -181 408 -174 11 6 67 130 67 147 0 7 -15 19 -32 28 -75 35 -366 158 -375
158 -6 0 -15 -6 -21 -12z"/>
<path d="M358 1418 c-18 -6 -33 -24 -48 -61 -33 -76 -21 -91 113 -146 59 -25
107 -49 107 -53 0 -5 -22 -61 -49 -126 -26 -64 -92 -223 -145 -352 -54 -129
-104 -239 -113 -245 -78 -48 -114 -112 -106 -185 15 -140 201 -188 294 -77 35
42 41 124 14 177 -14 27 -9 42 160 450 96 232 175 428 175 434 0 29 -36 51
-201 119 -142 60 -180 72 -201 65z m-11 -1087 c20 -27 25 -63 12 -93 -12 -28
-52 -56 -76 -52 -7 1 -20 2 -28 3 -25 2 -65 48 -65 75 0 67 57 113 114 93 17
-6 36 -18 43 -26z"/>
<path d="M1671 1238 c-66 -147 -152 -362 -148 -373 8 -20 137 -70 154 -59 8 5
52 97 98 204 76 180 81 196 66 211 -18 18 -112 59 -135 59 -9 0 -24 -19 -35
-42z"/>
<path d="M291 1182 c-30 -57 -162 -387 -159 -400 3 -13 125 -72 150 -72 5 0
20 26 34 58 14 31 29 66 34 77 39 85 110 272 108 283 -3 13 -98 58 -140 67
-10 2 -22 -4 -27 -13z"/>
<path d="M713 751 c-10 -11 -31 -53 -47 -93 -16 -40 -40 -95 -52 -123 -43 -98
-54 -128 -54 -150 0 -27 36 -59 86 -75 54 -18 75 2 125 124 24 58 48 106 52
106 8 0 318 -127 412 -169 22 -10 98 -42 169 -72 124 -52 129 -55 146 -95 56
-131 238 -137 299 -11 25 52 26 85 6 135 -35 83 -127 123 -210 92 -22 -8 -83
14 -455 170 -236 99 -436 180 -444 180 -8 0 -23 -9 -33 -19z m1060 -432 c33
-41 18 -108 -31 -132 -37 -18 -75 -11 -103 19 -42 45 -23 122 36 144 27 10 76
-5 98 -31z"/>
<path d="M854 462 c-5 -4 -23 -38 -39 -75 -24 -58 -26 -70 -14 -82 25 -24 393
-173 408 -165 17 9 68 130 64 150 -3 9 -81 47 -191 92 -228 94 -215 89 -228
80z"/>
</g>
</svg>
